PathFileType	4	(X/Y/Z)	0_coords_data.trc
DataRate	CameraRate	NumFrames	NumMarkers	Units	OrigDataRate	OrigDataStartFrame	OrigNumFrames
30.0	30.0	7	21	m	30.0	1	57
Frame#	Time	THUMB_TIP	THUMB_IP	THUMB_MCP	THUMB_CMC	INDEX_TIP	INDEX_DIP	INDEX_PIP	INDEX_MCP	MIDDLE_TIP	MIDDLE_DIP	MIDDLE_PIP	MIDDLE_MCP	RING_TIP	RING_DIP	RING_PIP	RING_MCP	PINKY_TIP	PINKY_DIP	PINKY_PIP	PINKY_MCP	WRIST
X1	Y1	Z1	X2	Y2	Z2	X3	Y3	Z3	X4	Y4	Z4	X5	Y5	Z5	X6	Y6	Z6	X7	Y7	Z7	X8	Y8	Z8	X9	Y9	Z9	X10	Y10	Z10	X11	Y11	Z11	X12	Y12	Z12	X13	Y13	Z13	X14	Y14	Z14	X15	Y15	Z15	X16	Y16	Z16	X17	Y17	Z17	X18	Y18	Z18	X19	Y19	Z19	X20	Y20	Z20	X21	Y21	Z21
0	0.0	-0.003927520036697387	-0.1043239974975586	0.9880269775390625	2.459149993956e-05	-0.07677159881591797	0.9975919799804688	-0.010678199768066407	-0.0574093017578125	1.0211400146484375	-0.012500900268554688	-0.018538000106811524	1.0364100341796876	-0.004764739990234375	-0.02328380012512207	1.0088400268554687	0.012461999893188476	-0.020511999130249023	0.9979249877929688	0.017984600067138673	-0.022519899368286134	0.9722059936523437	-0.02598590087890625	-0.030204999923706056	0.9735850219726563	0.0019130300283432	-0.006131360054016113	1.01047998046875	0.011850099563598632	-0.001563599944114685	1.0017899780273438	0.01890660095214844	0.00126951003074646	0.9723410034179687	-0.02863170051574707	-0.003906909942626953	0.968802001953125	-0.003206049919128418	0.009285460472106934	1.0146799926757812	0.008112990379333496	0.015707799911499024	1.00852001953125	0.018214599609375	0.02312030029296875	0.98347998046875	-0.02828730010986328	0.021867599487304688	0.9740239868164062	-0.00760998010635376	0.027066999435424805	1.013989990234375	0.005328139781951904	0.03420859909057617	1.0044400024414062	0.007378870010375976	0.044418201446533204	0.9864840087890625	-0.029473899841308594	0.04457780075073242	0.9825579833984375	-0.03467990112304688	0.007786900043487549	1.054760009765625
1	0.03333333333333333	-0.00380364990234375	-0.10483999633789062	0.9882579956054688	7.004380226135202e-05	-0.07725469970703125	0.9978179931640625	-0.010543299674987792	-0.05794150161743164	1.02122998046875	-0.01235260009765625	-0.01893479919433594	1.0363699951171874	-0.004749330043792724	-0.02388400077819824	1.0088099975585938	0.012526399612426757	-0.021005399703979494	0.9977069702148438	0.017970399856567384	-0.02312369918823242	0.9722130126953125	-0.025913200378417968	-0.03092609977722168	0.9734979858398437	0.0020730700492858876	-0.0066384501457214355	1.0100499877929687	0.01193529987335205	-0.002082050085067749	1.0017100219726562	0.01882859992980957	0.000707036018371582	0.9722839965820312	-0.028655300140380858	-0.00461667013168335	0.9687849731445313	-0.0034846301078796382	0.008750479698181152	1.01447998046875	0.008163969993591308	0.015145999908447266	1.0080499877929687	0.01819919967651367	0.022553199768066405	0.9833790283203125	-0.02839979934692383	0.02121419906616211	0.9738289794921875	-0.007537449836730957	0.02680940055847168	1.014989990234375	0.005028110027313232	0.03366429901123047	1.0040499877929687	0.0072797698974609365	0.043862800598144534	0.98635302734375	-0.029562599182128908	0.04396950149536133	0.9823259887695313	-0.034443801879882815	0.0073089599609375	1.055219970703125
2	0.06666666666666667	-0.003769550085067749	-0.10526999664306641	0.9882420043945312	0.000124810002744197	-0.07775029754638672	0.9977230224609375	-0.01034689998626709	-0.05843420028686523	1.0211799926757812	-0.01228909969329834	-0.019418399810791017	1.0364599609375	-0.00464385986328125	-0.02431329917907715	1.0086300048828125	0.01260830020904541	-0.021395999908447264	0.997572998046875	0.018060400009155275	-0.02352440071105957	0.9720089721679688	-0.0258351993560791	-0.03131010055541992	0.973406005859375	0.002083400011062622	-0.007107409954071045	1.00997998046875	0.012160599708557129	-0.0025346200466156003	1.0014099731445312	0.018911399841308595	0.000261364996433258	0.9719710083007812	-0.028522199630737304	-0.004994050025939941	0.9687579956054687	-0.003744339942932129	0.00841545009613037	1.0145900268554688	0.008263259887695313	0.014759799957275391	1.00777001953125	0.018181699752807617	0.022225799560546874	0.98302099609375	-0.028316600799560547	0.020792299270629883	0.9738070068359375	-0.007442699909210205	0.026347299575805665	1.0135499877929688	0.005192180156707763	0.03328200149536133	1.0041599731445312	0.007205599784851074	0.04359719848632813	0.985823974609375	-0.029483800888061525	0.04355059814453125	0.9822479858398437	-0.03434489822387695	0.006932700157165527	1.05497998046875
3	0.1	-0.003668610095977783	-0.10559799957275391	0.9883400268554687	0.00032870799303054806	-0.07802909851074219	0.9977429809570313	-0.010184700012207032	-0.05862360000610352	1.0211300048828125	-0.011991100311279297	-0.019690500259399415	1.0363199462890624	-0.0045503201484680175	-0.024618200302124024	1.0085599975585937	0.012821800231933593	-0.021632600784301757	0.9975170288085937	0.01822719955444336	-0.02381439971923828	0.971802978515625	-0.025709299087524413	-0.03160400009155274	0.97339697265625	0.0021764500141143797	-0.0073548898696899415	1.0098800048828125	0.012241700172424316	-0.002763999938964843	1.001219970703125	0.019060300827026366	2.0091999322175003e-05	0.9718759765625	-0.028400699615478517	-0.005290160179138184	0.96864697265625	-0.003193010091781616	0.008143170356750488	1.0146599731445312	0.008474539756774903	0.0145024995803833	1.0083699951171874	0.018364900588989257	0.021982500076293945	0.98289599609375	-0.02827829933166504	0.020499799728393556	0.973697021484375	-0.007327799797058106	0.026095500946044924	1.0131199951171874	0.005463119983673096	0.032984901428222656	1.003719970703125	0.0073521299362182616	0.043359401702880856	0.9856069946289062	-0.029437799453735352	0.043277400970458985	0.9821090087890625	-0.03398160171508789	0.006795060157775879	1.054780029296875
4	0.13333333333333333	-0.003249619960784912	-0.10575399780273438	0.988572021484375	0.000714487016201019	-0.07818589782714844	0.997781005859375	-0.00980819034576416	-0.05859970092773437	1.02125	-0.011636300086975098	-0.019630300521850587	1.03622998046875	-0.004154990196228028	-0.024385799407958986	1.0089500122070312	0.012929300308227538	-0.021651199340820312	0.9972009887695312	0.018196800231933593	-0.02385770034790039	0.9716370239257812	-0.02570229911804199	-0.03179439926147461	0.9734030151367188	0.00228737998008728	-0.007381529808044434	1.0098800048828125	0.012374199867248536	-0.002794539928436279	1.0011799926757812	0.01895359992980957	-0.00010453999787569001	0.97143701171875	-0.028658300399780273	-0.005521180152893067	0.9685079956054687	-0.003188250064849853	0.008124549865722657	1.014280029296875	0.008447509765625	0.014579099655151367	1.0075800170898437	0.018178600311279297	0.02194449996948242	0.98227099609375	-0.028322700500488282	0.020277099609375	0.973343994140625	-0.007493090152740477	0.026151899337768555	1.0126900024414063	0.005274710178375244	0.033144298553466796	1.00327001953125	0.007278840065002442	0.043243999481201174	0.9852650146484375	-0.029574600219726563	0.043097599029541016	0.9818099975585938	-0.03365340042114258	0.007019619941711425	1.0543599853515624
5	0.16666666666666666	-0.003095989942550659	-0.10581199645996094	0.988583984375	0.0008798199892044061	-0.07819249725341797	0.9977849731445313	-0.00950979995727539	-0.0586682014465332	1.0211699829101561	-0.011394800186157227	-0.01957460021972656	1.0361300048828126	-0.004176350116729737	-0.024558900833129883	1.0081900024414063	0.013022000312805176	-0.021682600021362304	0.9970670166015625	0.018283700942993163	-0.02393939971923828	0.9713569946289062	-0.02562980079650879	-0.03190480041503906	0.9733599853515625	0.002517420053482055	-0.007357580184936523	1.009719970703125	0.012465700149536133	-0.002792259931564331	1.0009400024414064	0.019049699783325196	-0.000127410992980003	0.971239013671875	-0.02853809928894043	-0.005579659938812256	0.9684910278320312	-0.0032253599166870107	0.00819027042388916	1.0142100219726562	0.00865530014038086	0.014550399780273438	1.0073800048828125	0.018300300598144532	0.021980199813842773	0.982052978515625	-0.028257999420166015	0.020247600555419923	0.9733560180664063	-0.007237050056457518	0.02622800064086914	1.0125900268554688	0.0055107598304748534	0.03315570068359375	1.0031199951171874	0.007236879825592041	0.043277099609375	0.9849299926757813	-0.029508100509643555	0.04303189849853516	0.9816699829101563	-0.033491500854492186	0.007075439929962158	1.0547900390625
6	0.2	-0.00295861005783081	-0.10582900238037109	0.9886209716796875	0.0009996089935302732	-0.07822640228271484	0.9978419799804688	-0.00937010955810547	-0.058577701568603514	1.0210900268554688	-0.011170800209045411	-0.019538700103759767	1.0362099609375	-0.003838759899139404	-0.024487899780273437	1.0084199829101563	0.013240699768066405	-0.021678400039672852	0.9970050048828125	0.01841160011291504	-0.02386429977416992	0.9713939819335937	-0.02542329978942871	-0.031831199645996094	0.9734130249023437	0.0027887399196624752	-0.007292669773101806	1.00947998046875	0.01280970001220703	-0.002757849931716919	1.0007999877929687	0.019183300018310548	-0.00013314799964427902	0.97114501953125	-0.02830970001220703	-0.0055494699478149416	0.9684860229492187	-0.0028102600574493406	0.008134759902954102	1.0141799926757813	0.008854379653930664	0.014701899528503417	1.0074099731445312	0.018433099746704103	0.021913700103759766	0.9821170043945312	-0.0280802001953125	0.020257200241088867	0.9733040161132812	-0.00722121000289917	0.0262101993560791	1.012469970703125	0.005648240089416504	0.03323899841308594	1.0031400146484375	0.007456639766693115	0.04333029937744141	0.9848759765625	-0.02937030029296875	0.04301229858398437	0.981697021484375	-0.03339530181884766	0.006880169868469239	1.05497998046875
